<?xml version="1.0" encoding="utf-8"?>
<!-- Generator: Adobe Illustrator 16.0.3, SVG Export Plug-In . SVG Version: 6.00 Build 0)  -->
<!DOCTYPE svg PUBLIC "-//W3C//DTD SVG 1.1//EN" "http://www.w3.org/Graphics/SVG/1.1/DTD/svg11.dtd">
<svg version="1.1" id="Layer_1" xmlns="http://www.w3.org/2000/svg" xmlns:xlink="http://www.w3.org/1999/xlink" x="0px" y="0px"
	 width="352.95px" height="407px" viewBox="0 0 352.95 407" style="enable-background:new 0 0 352.95 407;" xml:space="preserve">
<style type="text/css">
<![CDATA[
	.st0{font-family:'Vijaya-Bold';}
	.st1{fill:#FFFFFF;}
	.st2{font-size:48;}
]]>
</style>
<g>
	<g id="XMLID_1_">
		<g>
			<path class="st1" d="M352.95,195.84c0,54.24,0,108.49,0,162.98c-53.66,0-107.32,0-160.979,0c8.159-1.5,16.43-2.521,24.449-4.57
				c61.74-15.86,104.24-53.59,126.24-113.42c4.88-13.26,6.351-27.77,9.4-41.7C352.299,198.02,352.65,196.94,352.95,195.84z"/>
			<path d="M352.95,167.84c0,9.34,0,18.67,0,28c-0.3,1.1-0.65,2.18-0.89,3.29c-3.05,13.93-4.521,28.44-9.4,41.7
				c-22,59.83-64.5,97.56-126.24,113.42c-8.02,2.05-16.29,3.07-24.449,4.57c-10.661,0-21.331,0-31.99,0
				c-5.65-1.04-11.35-1.86-16.94-3.15C69.98,338.85,23.47,294.46,4.54,221.73c-2.2-8.45-3.06-17.25-4.54-25.89c0-9,0-18,0-27
				c0.6-3.73,1.28-7.46,1.81-11.2C11.98,85.67,64.98,27.39,135.62,10.79c9.01-2.12,18.23-3.31,27.36-4.93c8.99,0,17.99,0,26.99,0
				c3.739,0.61,7.46,1.29,11.21,1.82c73.77,10.44,133.08,65.95,147.949,138.62C350.6,153.44,351.69,160.66,352.95,167.84z
				 M278.18,320.49c66.13-45.79,94.46-143.18,48.43-224.59C281.51,16.12,184.1-13.75,101.47,26.04
				C13.95,68.19-13.63,162.78,14.85,242.08c0.89-0.2,2.02-0.13,2.72-0.65c6.9-5.189,15.03-6.84,23.23-8.45
				c2.22-0.44,4.33-1.63,6.4-2.66c4.91-2.45,9.62-5.37,14.67-7.44c15.53-6.38,28.85-15.65,39.84-28.4
				c3.65-4.25,8.56-6.39,14.58-5.23c-1.24,3.14-2.23,5.94-3.43,8.64c-1.72,3.9-1.54,7.23,1.76,10.4c4.67,4.51,8.88,9.49,13.58,13.96
				c5.66,5.38,12.45,9.77,17.28,15.77c10.41,12.921,19.84,26.61,29.74,39.94c1.6,2.16,3.57,4.05,6.04,6.81
				c5.33-13.63,0.52-23.699-6.9-32.989c1.65-3.44,2.79-6.98,4.84-9.87c5.33-7.5,9.01-11.21,18.51-6.34c1.74,0.89,3.66,1.6,5.57,1.93
				c5.01,0.88,9.14-3.2,8.37-8.25c-0.92-6.06-1.86-12.14-3.14-18.14c-1.23-5.79,0.06-10.6,3.689-15.29
				c3.75-4.83,6.76-10.24,10.26-15.29c2.53-3.66,4.771-7.81,8.12-10.56c9.99-8.23,14.771-19.42,18.97-31.04
				c1.471-4.06-0.1-6.29-5.26-5.94c13.431-18.21,15.61-38.62,14.26-59.89c0.28,0.37,0.671,0.71,0.801,1.13
				c0.3,0.95,0.47,1.94,0.689,2.91c3.181,14-1.779,26.97-5.16,40.13c-1.47,5.69-5.659,10.92-1.89,17.35c0.82,1.41,0.4,4.12-0.39,5.8
				c-3.38,7.21-6.44,14.71-10.86,21.27c-6.53,9.7-14.82,18.08-21.76,27.63c-7.41,10.2-9.32,19.58-5.95,30.95
				c0.05,0.15,0.06,0.32,0.07,0.49c0.13,4.45,2.569,6.34,6.859,6.55c5.41,0.26,8.53,3.58,11.08,8.1c1.42,2.51,3.641,4.97,6.11,6.39
				c3.25,1.87,7.03,2.99,10.72,3.91c7.59,1.89,13.29,6.42,17.021,12.94c3.02,5.279,5.989,11.04,7.02,16.93
				c2.29,13.03,3.34,26.28,4.87,39.45C277.98,316.71,278.03,318.4,278.18,320.49z M268.02,327.8c2.979-1.93,3.939-4.13,3.68-7.39
				c-0.88-11.05-1.479-22.141-2.64-33.16c-0.49-4.73-1.96-9.39-3.33-13.98c-0.311-1.02-2.021-1.899-3.25-2.21
				c-0.53-0.14-1.99,1.221-2.15,2.061c-2.68,13.76-8.34,26.37-14.97,38.57c-1.87,3.439-4.64,6.39-6.85,9.68
				c-1.051,1.57-2.391,3.34-2.5,5.08c-0.33,5.29-0.12,10.609-0.12,17.06C247.9,338.96,258.27,334.11,268.02,327.8z M257.79,265.28
				c0.11,0.09,2.07-1.891,4.17-3.82c-2.87-2.71-5.069-5.09-7.67-6.91c-0.38-0.27-2.63,2.141-4.02,3.32
				C252.74,260.38,255.16,262.94,257.79,265.28z M252.6,276.88c0.71-1.86,0.35-4.96-0.811-6.57c-4.189-5.85-8.479-11.76-13.58-16.8
				c-5.16-5.12-8.26-11.01-10.27-17.76c-1.311-4.39-4.9-5.12-8.73-4.85c-3.92,0.28-4.569,2.99-4.359,6.4
				c0.91,14.29-5.681,25.431-15.351,35.851c0.25-1.41,0.49-2.301,0.54-3.2c0.38-6.38,0.66-13-4.41-17.71
				c-1.93-1.79-5.92-2.94-8.34-2.24c-3.359,0.98-2.62,4.73-1.8,7.69c0.26,0.939,0.66,1.859,0.73,2.81
				c0.619,7.8-0.36,15.83,3.47,23.15c0.29,0.54,0.229,1.3,0.21,1.96c-0.36,11.39-0.92,22.79-0.94,34.18
				c-0.01,1.83,1.99,4.15,3.681,5.38c3.729,2.7,7.989,4.67,11.779,7.29c3.271,2.26,6.011,5.28,9.301,7.49
				c4.43,3,7.22,1.8,8.829-3.181c0.45-1.399,0.98-2.829,1.79-4.029c4.681-7,10.33-13.51,14-21
				C243.86,300.49,248.14,288.62,252.6,276.88z M225.1,346.41c-0.12-1.2-0.24-2.44-0.44-4.49c-2.88,0.54-5.17,0.97-7.979,1.49
				c1.43,1.979,2.46,3.42,3.42,4.75C221.879,347.53,223.379,347.01,225.1,346.41z M214.22,349.87c-2.11-1.62-3-2.311-3.891-3
				c-3.3-2.54-6.97-4.75-9.819-7.72c-3.41-3.561-6.7-6.131-11.851-7.44c-6.13-1.56-9.38,0.72-12.56,4.94
				c-1.07,1.42-2.72,2.619-3.22,4.199c-1.03,3.33-2.17,6.931-1.75,10.23c0.13,1.03,5.13,1.439,8.68,2.33
				c-0.58-2.99-0.88-4.51-1.17-6.04c2.28,2.58,3.28,7.01,8.41,4.43c-0.939-1.21-1.779-2.3-2.63-3.399
				c0.221-0.511,0.431-1.03,0.65-1.54C193.879,357.04,203.43,351.46,214.22,349.87z M200.1,248.77
				c1.01-5.569-4.101-13.13-9.511-13.13c-1.829,0-4.199,2.011-5.35,3.74c-1.46,2.22-0.26,4.101,2.271,5.46
				c4.27,2.3,8.3,5.061,12.159,7.46C199.74,251.69,199.83,250.22,200.1,248.77z M182.82,308.25c-0.08-3.77,0.66-7.56,0.61-11.33
				c-0.07-4.47-3.84-5.66-6.86-8.02c-5.19-4.061-9.6-9.311-13.64-14.591c-5.38-7.029-9.61-14.979-15.25-21.77
				c-4.94-5.94-11.47-10.54-16.66-16.31c-2.24-2.49-4.1-1.83-5.38-0.5c-2.82,2.949-5.06,6.46-8.19,10.619
				c-0.03,0-1.56,0.021-2.83,0.601c-3.52,1.649-7,3.42-10.34,5.39c-0.87,0.521-1.9,2.601-1.64,2.891c1,1.109,2.4,2.02,3.82,2.56
				c0.67,0.25,1.72-0.521,2.86-0.91c0.99,2.58,1.7,4.97,2.83,7.15c0.62,1.2,1.89,2.899,2.93,2.939
				c6.67,0.28,5.97,8.431,11.37,10.261c2.13,0.72,3.41,3.689,5.4,5.21c1.78,1.369,4.32,1.829,5.98,3.31
				c2.96,2.65,5.41,5.87,8.29,8.64c0.93,0.891,2.52,1.08,3.47,1.46c7.77,11.07,15.44,21.99,23.6,33.61
				c1.5-1.979,3.23-3.96,4.63-6.14C180.75,318.74,182.94,313.93,182.82,308.25z M164.33,336.98c3.94-4.41,3.89-7.36,0.36-11.87
				c-5.35-6.86-10.43-13.931-15.87-20.71c-3.52-4.381-7.25-8.67-11.35-12.49c-4.67-4.36-9.81-8.24-14.87-12.16
				c-1.75-1.36-3.88-2.23-5.83-3.32c-1.16-0.97-1.29-3.989-2.53-4.55c-4.66-2.12-7.27-5.58-10.18-9.67
				c-3.76-5.26-9.47-9.12-13.96-13.229c0.2,0.029,0.97,0.039,1.67-0.2c2.12-0.73,4.18-1.63,6.26-2.46
				c-1.36-2.71-2.15-5.811-6.41-5.521c-1,0.07-2.51-2-3.2-3.38c-2.37-4.8-6.02-8.14-10.98-11.54c-0.22,2.59-0.35,4.02-0.48,5.55
				c-1.43,0.36-2.7,0.93-3.98,0.95c-4.04,0.05-6.48,1.69-7.04,5.92c-0.49,3.681-0.91,7.101,2.96,9.5c2.05,1.271,4.34,2.79,5.48,4.8
				c2.43,4.271,4.18,8.931,6.36,13.771c-1.08,0.479-2.32,1.04-3.56,1.59c2.01,4.49,0.67,8.11-3.89,11.25
				c-2.26-2.77-4.24-5.86-6.85-8.25c-4.34-3.979-8.57-8.59-15.19-8.37c-1.31,0.05-3.76,1.63-3.67,2.07
				c0.81,3.729,1.18,8.12,3.45,10.85c3.19,3.87,8.51,5.971,11.75,9.811c2.88,3.41,5.56,5.279,9.87,4.71
				c1.51-5.92,1.54-5.95,4.72-5.73c-0.33,1.36-0.68,2.8-1.13,4.681c2.61-0.66,4.31-1.08,6.45-1.62
				c-3.04,8.02-2.54,14.979,0.05,22.04c1.09,2.989,1.43,6.27,2.11,9.409c-0.47,0.11-0.94,0.21-1.41,0.311
				c-3.54-11.23-12.49-16.311-19.71-11.29c13,16.31,29.81,26.99,49.49,33.86c0.53-14.54-9.9-25.841-10.04-39.58
				c0.64-0.181,1.29-0.351,1.93-0.53c0.7,1.77,1.33,3.58,2.1,5.32c2.83,6.39,4.53,13.77,8.91,18.819c3.87,4.46,4.58,9.79,6.82,14.46
				c2.03,4.24,3.85,6.87,8.15,7.891c5.1,1.22,10.18,2.72,15.35,3.359c2.11,0.261,5-0.8,6.6-2.279
				C157.09,345.4,160.64,341.11,164.33,336.98z M123.83,232.68c-2.84-2.69-6.09-4.42-7.1-7.02c-1.85-4.72-5.11-6.24-9.3-5.5
				c-4.26,0.75-9.76-2.15-12.63,3.64c-0.09,0.19-1.07-0.19-1.4,0.04c-1.5,1.03-3.73,1.96-4.12,3.36c-0.42,1.5,0.48,3.87,1.59,5.2
				c6.24,7.52,15.62,6.73,23.96,8.66c0.28,0.061,0.72-0.05,0.92-0.25C118.51,238.07,121.24,235.29,123.83,232.68z M64.5,260.02
				c3.15,2.721,5.97,2.141,9.12-1.67c-6.58-7.39-12.11-15.5-23.87-15.949c-11.2-0.431-21.87,1.489-33.17,4.01
				c0.83,1.21,1.1,2.05,1.53,2.14c5.43,1.19,10.83,2.811,16.33,3.26C45.03,252.68,55.77,252.49,64.5,260.02z M64.2,304.3
				c-2.78-2.53-4.72-4.84-7.18-6.25c-1.01-0.58-3.12,0.771-4.74,1.23c0.76,0.97,1.48,1.979,2.31,2.88c0.5,0.54,1.6,0.82,1.73,1.37
				C57.63,309.28,60.38,306.26,64.2,304.3z M43.32,289.65c3.24,7.26,6.57,9.05,10.68,5.76C51.63,290.89,47.62,288.72,43.32,289.65z"
				/>
			<path class="st1" d="M352.95,5.86c0,54,0,107.99,0,161.98c-1.26-7.18-2.35-14.4-3.82-21.54
				C334.26,73.63,274.95,18.12,201.18,7.68c-3.75-0.53-7.471-1.21-11.21-1.82C244.299,5.86,298.62,5.86,352.95,5.86z"/>
			<path class="st1" d="M326.61,95.9c46.03,81.41,17.7,178.8-48.43,224.59c-0.15-2.09-0.2-3.78-0.4-5.46
				c-1.53-13.17-2.58-26.42-4.87-39.45c-1.03-5.89-4-11.65-7.02-16.93c-3.73-6.521-9.431-11.051-17.021-12.94
				c-3.689-0.92-7.47-2.04-10.72-3.91c-2.47-1.42-4.69-3.88-6.11-6.39c-2.55-4.52-5.67-7.84-11.08-8.1
				c-4.29-0.21-6.729-2.1-6.859-6.55c-0.011-0.17-0.021-0.34-0.07-0.49c-3.37-11.37-1.46-20.75,5.95-30.95
				c6.939-9.55,15.229-17.93,21.76-27.63c4.42-6.56,7.48-14.06,10.86-21.27c0.79-1.68,1.21-4.39,0.39-5.8
				c-3.77-6.43,0.42-11.66,1.89-17.35c3.381-13.16,8.341-26.13,5.16-40.13c-0.22-0.97-0.39-1.96-0.689-2.91
				c-0.13-0.42-0.521-0.76-0.801-1.13c1.351,21.27-0.829,41.68-14.26,59.89c5.16-0.35,6.73,1.88,5.26,5.94
				c-4.199,11.62-8.979,22.81-18.97,31.04c-3.35,2.75-5.59,6.9-8.12,10.56c-3.5,5.05-6.51,10.46-10.26,15.29
				c-3.63,4.69-4.92,9.5-3.689,15.29c1.279,6,2.22,12.08,3.14,18.14c0.77,5.05-3.36,9.13-8.37,8.25c-1.91-0.33-3.83-1.04-5.57-1.93
				c-9.5-4.87-13.18-1.16-18.51,6.34c-2.05,2.89-3.19,6.43-4.84,9.87c7.42,9.29,12.229,19.359,6.9,32.989
				c-2.47-2.76-4.44-4.649-6.04-6.81c-9.9-13.33-19.33-27.02-29.74-39.94c-4.83-6-11.62-10.39-17.28-15.77
				c-4.7-4.47-8.91-9.45-13.58-13.96c-3.3-3.17-3.48-6.5-1.76-10.4c1.2-2.7,2.19-5.5,3.43-8.64c-6.02-1.16-10.93,0.98-14.58,5.23
				c-10.99,12.75-24.31,22.02-39.84,28.4c-5.05,2.07-9.76,4.99-14.67,7.44c-2.07,1.03-4.18,2.22-6.4,2.66
				c-8.2,1.61-16.33,3.26-23.23,8.45c-0.7,0.521-1.83,0.45-2.72,0.65c-28.48-79.3-0.9-173.89,86.62-216.04
				C184.1-13.75,281.51,16.12,326.61,95.9z M251.53,85.8c-0.85-4.36-1.7-8.73-2.55-13.1c-0.63,0.14-1.26,0.27-1.9,0.4
				c1.13,4.36,2.25,8.73,3.37,13.1C250.81,86.07,251.169,85.94,251.53,85.8z M221.29,74.75c3.641,3.99,7.88,6.61,14.431,4.27
				C230.47,77.47,225.93,76.13,221.29,74.75z M212.68,70.83c-0.641-2.25-0.61-3.64-1.29-4.3c-3.66-3.56-7.54-6.91-11.23-10.45
				c-0.61-0.58-0.649-1.75-1.04-2.9c-3.32,0.91-3.13-2.76-4.38-5.13c-0.6-1.14-2.12-2.78-2.979-2.65
				c-6.87,1.05-6.851,1.16-8.101-4.49c-3.56-1.26-6.56-2.32-9.73-3.44c-2.29,3.27-10.12-0.21-10.31,7.23
				c0.89-0.17,1.88-0.36,3.08-0.59c-0.61,1.09-1.03,1.86-1.91,3.46c4.32-1.08,7.72-1.92,11.52-2.87c-0.15,2-0.26,3.42-0.4,5.22
				c2.26,0,3.94,0,5.89,0c-3.87,1.35-7.4,2.57-10.93,3.79c0.13,0.48,0.26,0.96,0.39,1.44c1.39-0.22,3.01-0.06,4.12-0.74
				c3.86-2.37,4.35-0.28,4.89,2.99c0.57,3.48,1.81,6.85,2.7,10.06c4.46-4.03,8.56-8.02,7.57-14.86c0.7,0.17,1.4,0.33,2.101,0.5
				c0.25,4.97,0.51,9.94,0.779,15.24c0.63-1.62,1.29-3.21,1.851-4.83c0.609-1.75,1.12-3.53,1.67-5.3c2.21,0.86,4.859,1.22,6.55,2.68
				C206.56,63.54,209.07,66.84,212.68,70.83z M203.299,47.18c0-2.33,0-4.04,0-5.78c-1.779,0-4.42,0-7.8,0
				C198.47,43.6,200.709,45.26,203.299,47.18z M199.49,72.52c-1.05-1.36-2.17-2.81-3.3-4.26c-0.3,0.17-0.601,0.34-0.91,0.5
				c0.13,0.7,0.26,1.4,0.48,2.62c-6.641-2.79-15.71,3.36-19.931-7.3c-0.37,5.25,2.36,8.28,7.1,8.4
				C188.379,72.62,193.839,72.52,199.49,72.52z M182.91,145.84c2.04-5.03,6.32-9.74,3.39-15.87c-4.72-9.9-12.52-14.28-23.66-13.24
				c-1.49,0.13-2.96,0.56-4.45,0.64c-3.72,0.2-5.77-1.25-4.97-5.35c0.21-1.05,0.25-2.13,0.32-2.72c-1.83-0.25-3.27-0.45-5.37-0.73
				c2.35-1.83,3.85-3.01,5.36-4.18c0.02-0.02,0.04-0.03,0.04-0.03c-0.02,0-0.05,0.01-0.07,0.01c0.36-0.99,0.83-1.96,1.22-2.94
				c0.4-1,0.74-2,0.85-3.03c0.5-4.7,0.55-9.44,0.76-13.82c-2.48-0.2-5.19-0.42-9.36-0.75c4.51-3.75,9.03-5.94,11.04-9.53
				c3.79-6.76,8.3-12.19,15.43-15.32c0.12-0.05,0.06-0.51,0.14-1.39c-2.2,0.89-4.54,1.23-5.99,2.54c-4.85,4.41-9.45,9.1-14.02,13.8
				c-2.8,2.88-4.93,6.87-11.18,4.47c7.94-7.81,11.21-17.42,11.78-28.87c-1.75,2.1-3.52,3.61-4.48,5.52
				c-2.45,4.88-5.16,9.77-6.63,14.97c-0.75,2.66-1.46,5.33-2.15,8c-2.75,10.65-5.16,21.39-8.2,31.96
				c-1.54,5.35-3.03,10.63-3.21,16.17c-0.12,3.59-0.15,7.32,0.66,10.78c1.44,6.1,4.38,11.94,5.15,18.09
				c0.81,6.48,0.27,13.26-0.69,19.76c-0.28,1.88-4.05,3.24-6.68,5.17c3.59,6.5,8.76,11.87,14.55,16.91
				c6.41,5.58,14.73,7.91,21.24,12.99c5.49,4.29,11.07,4.07,17.12,3.16c1.41-0.21,2.78-0.68,4.17-1.04
				c-2.06-1.09-3.89-1.23-5.7-1.07c-10.2,0.91-17.48-2.74-20.77-12.95c-0.26-0.8-1.32-1.95-1.94-1.91
				c-3.55,0.25-3.79-2.28-3.82-4.58c-0.12-9.15-0.05-18.3-0.05-27.18c-1.81-0.57-4.35-0.88-4.42-1.48
				c-0.4-3.36-1.17-7.17-0.03-10.13c2.59-6.73,2.34-9.07-3.71-13.47c-0.34-0.25-0.58-0.76-0.7-1.19c-1.07-4.07-2.1-8.15-3.17-12.37
				c-0.55,0.25-1.44,0.64-2.33,1.04c-0.3-0.51-0.59-1.02-0.88-1.54c1.63-0.98,3.58-3.1,4.83-2.75c6.62,1.86,13.07,4.35,18.34,6.19
				c2.42-0.64,3.91-1.15,5.44-1.4c1.74-0.28,3.54-0.15,5.25-0.51c5.01-1.08,11.41,3.81,11.69,8.78c0.37,6.74-3.76,11.53-7,16.66
				c-2.28,3.62-3.83,7.39-1.32,11.13c2.64,3.92,6.95,4.73,12.29,4.42c-2.75-1.27-4.71-2.13-6.62-3.08
				c-6.07-3.02-6.62-5.72-2.47-11.31C179.71,150.87,181.81,148.55,182.91,145.84z"/>
			<path class="st1" d="M271.7,320.41c0.26,3.26-0.7,5.46-3.68,7.39c-9.75,6.311-20.12,11.16-32.13,15.71
				c0-6.45-0.21-11.77,0.12-17.06c0.109-1.74,1.449-3.51,2.5-5.08c2.21-3.29,4.979-6.24,6.85-9.68
				c6.63-12.2,12.29-24.811,14.97-38.57c0.16-0.84,1.62-2.2,2.15-2.061c1.229,0.311,2.939,1.19,3.25,2.21
				c1.37,4.591,2.84,9.25,3.33,13.98C270.22,298.27,270.82,309.36,271.7,320.41z"/>
			<path class="st1" d="M261.959,261.46c-2.1,1.93-4.06,3.91-4.17,3.82c-2.63-2.34-5.05-4.9-7.52-7.41
				c1.39-1.18,3.64-3.59,4.02-3.32C256.89,256.37,259.089,258.75,261.959,261.46z"/>
			<path class="st1" d="M251.79,270.31c1.16,1.61,1.521,4.71,0.811,6.57c-4.46,11.74-8.74,23.61-14.261,34.86
				c-3.67,7.49-9.319,14-14,21c-0.81,1.2-1.34,2.63-1.79,4.029c-1.609,4.98-4.399,6.181-8.829,3.181
				c-3.29-2.21-6.03-5.23-9.301-7.49c-3.79-2.62-8.05-4.59-11.779-7.29c-1.69-1.229-3.69-3.55-3.681-5.38
				c0.021-11.39,0.58-22.79,0.94-34.18c0.02-0.66,0.08-1.42-0.21-1.96c-3.83-7.32-2.851-15.351-3.47-23.15
				c-0.07-0.95-0.471-1.87-0.73-2.81c-0.82-2.96-1.56-6.71,1.8-7.69c2.42-0.7,6.41,0.45,8.34,2.24c5.07,4.71,4.79,11.33,4.41,17.71
				c-0.05,0.899-0.29,1.79-0.54,3.2c9.67-10.42,16.261-21.561,15.351-35.851c-0.21-3.41,0.439-6.12,4.359-6.4
				c3.83-0.27,7.42,0.46,8.73,4.85c2.01,6.75,5.109,12.64,10.27,17.76C243.31,258.55,247.6,264.46,251.79,270.31z"/>
			<path d="M248.98,72.7c0.85,4.37,1.7,8.74,2.55,13.1c-0.36,0.14-0.72,0.27-1.08,0.4c-1.12-4.37-2.24-8.74-3.37-13.1
				C247.72,72.97,248.35,72.84,248.98,72.7z"/>
			<path d="M235.72,79.02c-6.551,2.34-10.79-0.28-14.431-4.27C225.93,76.13,230.47,77.47,235.72,79.02z"/>
			<path class="st1" d="M224.66,341.92c0.2,2.05,0.32,3.29,0.44,4.49c-1.721,0.6-3.221,1.12-5,1.75c-0.96-1.33-1.99-2.771-3.42-4.75
				C219.49,342.89,221.78,342.46,224.66,341.92z"/>
			<path d="M211.39,66.53c0.68,0.66,0.649,2.05,1.29,4.3c-3.61-3.99-6.12-7.29-9.19-9.94c-1.69-1.46-4.34-1.82-6.55-2.68
				c-0.55,1.77-1.061,3.55-1.67,5.3c-0.561,1.62-1.221,3.21-1.851,4.83c-0.27-5.3-0.529-10.27-0.779-15.24
				c-0.7-0.17-1.4-0.33-2.101-0.5c0.99,6.84-3.109,10.83-7.57,14.86c-0.89-3.21-2.13-6.58-2.7-10.06c-0.54-3.27-1.03-5.36-4.89-2.99
				c-1.11,0.68-2.73,0.52-4.12,0.74c-0.13-0.48-0.26-0.96-0.39-1.44c3.53-1.22,7.06-2.44,10.93-3.79c-1.95,0-3.63,0-5.89,0
				c0.14-1.8,0.25-3.22,0.4-5.22c-3.8,0.95-7.2,1.79-11.52,2.87c0.88-1.6,1.3-2.37,1.91-3.46c-1.2,0.23-2.19,0.42-3.08,0.59
				c0.19-7.44,8.02-3.96,10.31-7.23c3.17,1.12,6.17,2.18,9.73,3.44c1.25,5.65,1.23,5.54,8.101,4.49c0.859-0.13,2.38,1.51,2.979,2.65
				c1.25,2.37,1.06,6.04,4.38,5.13c0.391,1.15,0.43,2.32,1.04,2.9C203.85,59.62,207.73,62.97,211.39,66.53z"/>
			<path class="st1" d="M210.33,346.87c0.891,0.689,1.78,1.38,3.891,3c-10.79,1.59-20.341,7.17-29.15-3.01
				c-0.22,0.51-0.43,1.029-0.65,1.54c0.851,1.1,1.69,2.189,2.63,3.399c-5.129,2.58-6.129-1.85-8.41-4.43
				c0.29,1.53,0.59,3.05,1.17,6.04c-3.55-0.891-8.55-1.3-8.68-2.33c-0.42-3.3,0.72-6.9,1.75-10.23c0.5-1.58,2.15-2.779,3.22-4.199
				c3.18-4.221,6.43-6.5,12.56-4.94c5.15,1.31,8.44,3.88,11.851,7.44C203.36,342.12,207.03,344.33,210.33,346.87z"/>
			<path d="M203.299,41.4c0,1.74,0,3.45,0,5.78c-2.59-1.92-4.829-3.58-7.8-5.78C198.879,41.4,201.52,41.4,203.299,41.4z"/>
			<path class="st1" d="M190.589,235.64c5.41,0,10.521,7.561,9.511,13.13c-0.271,1.45-0.36,2.921-0.431,3.53
				c-3.859-2.399-7.89-5.16-12.159-7.46c-2.53-1.359-3.73-3.24-2.271-5.46C186.39,237.65,188.76,235.64,190.589,235.64z"/>
			<path d="M196.19,68.26c1.13,1.45,2.25,2.9,3.3,4.26c-5.65,0-11.11,0.1-16.56-0.04c-4.74-0.12-7.47-3.15-7.1-8.4
				c4.22,10.66,13.29,4.51,19.931,7.3c-0.221-1.22-0.351-1.92-0.48-2.62C195.589,68.6,195.89,68.43,196.19,68.26z"/>
			<path d="M186.299,129.97c2.931,6.13-1.35,10.84-3.39,15.87c-1.1,2.71-3.2,5.03-4.98,7.43c-4.15,5.59-3.6,8.29,2.47,11.31
				c1.91,0.95,3.87,1.81,6.62,3.08c-5.34,0.31-9.65-0.5-12.29-4.42c-2.51-3.74-0.96-7.51,1.32-11.13c3.24-5.13,7.37-9.92,7-16.66
				c-0.28-4.97-6.68-9.86-11.69-8.78c-1.71,0.36-3.51,0.23-5.25,0.51c-1.53,0.25-3.02,0.76-5.44,1.4
				c-5.27-1.84-11.72-4.33-18.34-6.19c-1.25-0.35-3.2,1.77-4.83,2.75c0.29,0.52,0.58,1.03,0.88,1.54c0.89-0.4,1.78-0.79,2.33-1.04
				c1.07,4.22,2.1,8.3,3.17,12.37c0.12,0.43,0.36,0.94,0.7,1.19c6.05,4.4,6.3,6.74,3.71,13.47c-1.14,2.96-0.37,6.77,0.03,10.13
				c0.07,0.6,2.61,0.91,4.42,1.48c0,8.88-0.07,18.03,0.05,27.18c0.03,2.3,0.27,4.83,3.82,4.58c0.62-0.04,1.68,1.11,1.94,1.91
				c3.29,10.21,10.57,13.86,20.77,12.95c1.81-0.16,3.64-0.02,5.7,1.07c-1.39,0.36-2.76,0.83-4.17,1.04
				c-6.05,0.91-11.63,1.13-17.12-3.16c-6.51-5.08-14.83-7.41-21.24-12.99c-5.79-5.04-10.96-10.41-14.55-16.91
				c2.63-1.93,6.4-3.29,6.68-5.17c0.96-6.5,1.5-13.28,0.69-19.76c-0.77-6.15-3.71-11.99-5.15-18.09c-0.81-3.46-0.78-7.19-0.66-10.78
				c0.18-5.54,1.67-10.82,3.21-16.17c3.04-10.57,5.45-21.31,8.2-31.96l1.48,0.38c6.25,2.4,8.38-1.59,11.18-4.47
				c4.57-4.7,9.17-9.39,14.02-13.8c1.45-1.31,3.79-1.65,5.99-2.54c-0.08,0.88-0.02,1.34-0.14,1.39
				c-7.13,3.13-11.64,8.56-15.43,15.32c-2.01,3.59-6.53,5.78-11.04,9.53c4.17,0.33,6.88,0.55,9.36,0.75
				c-0.21,4.38-0.26,9.12-0.76,13.82c-0.11,1.03-0.45,2.03-0.85,3.03c-0.4,0.97-0.86,1.96-1.23,2.94c0,0.01-0.01,0.01-0.01,0.01
				c-0.01,0-0.03,0-0.04,0c-0.7-1.07-1.81-2.1-1.93-3.24c-0.18-1.76,0.34-3.58,0.52-5.03c-6.5,0.79-4.34,5.66-5.48,9.57
				c2.54-0.48,4.71-0.89,6.89-1.3c0.01,0.01,0.02,0.03,0.03,0.04c0.01,0,0.01-0.01,0.02-0.01c0.01-0.01,0.03-0.02,0.04-0.02
				c-1.51,1.17-3.01,2.35-5.36,4.18c2.1,0.28,3.54,0.48,5.37,0.73c-0.07,0.59-0.11,1.67-0.32,2.72c-0.8,4.1,1.25,5.55,4.97,5.35
				c1.49-0.08,2.96-0.51,4.45-0.64C173.78,115.69,181.58,120.07,186.299,129.97z M173.41,122.03c-5.19-5.73-10.81-1.55-16.05-2.15
				C159.28,125.28,161.9,125.62,173.41,122.03z M144.26,179c0.19-2.54,0.63-5.1,0.44-7.62c-0.05-0.75-1.83-1.88-2.82-1.88
				c-0.66,0-1.97,1.81-1.85,2.63c0.37,2.35,1.32,4.61,2.03,6.91C142.79,179.03,143.52,179.01,144.26,179z"/>
			<path class="st1" d="M183.43,296.92c0.05,3.771-0.69,7.561-0.61,11.33c0.12,5.68-2.07,10.49-5,15.07
				c-1.4,2.18-3.13,4.16-4.63,6.14c-8.16-11.62-15.83-22.54-23.6-33.61c-0.95-0.38-2.54-0.569-3.47-1.46
				c-2.88-2.77-5.33-5.989-8.29-8.64c-1.66-1.48-4.2-1.94-5.98-3.31c-1.99-1.521-3.27-4.49-5.4-5.21
				c-5.4-1.83-4.7-9.98-11.37-10.261c-1.04-0.04-2.31-1.739-2.93-2.939c-1.13-2.181-1.84-4.57-2.83-7.15
				c-1.14,0.39-2.19,1.16-2.86,0.91c-1.42-0.54-2.82-1.45-3.82-2.56c-0.26-0.29,0.77-2.37,1.64-2.891
				c3.34-1.97,6.82-3.74,10.34-5.39c1.27-0.58,2.8-0.601,2.83-0.601c3.13-4.159,5.37-7.67,8.19-10.619c1.28-1.33,3.14-1.99,5.38,0.5
				c5.19,5.77,11.72,10.369,16.66,16.31c5.64,6.79,9.87,14.74,15.25,21.77c4.04,5.28,8.45,10.53,13.64,14.591
				C179.59,291.26,183.36,292.45,183.43,296.92z M145.32,277.19c-0.1,6.739,6.57,16,11.31,15.229
				C153.25,282.71,153.25,282.71,145.32,277.19z M141.28,276.96c0.97-4.68-4.92-12.03-9.99-13.37
				C134.93,268.46,138.1,272.71,141.28,276.96z"/>
			<path class="st1" d="M157.36,119.88c5.24,0.6,10.86-3.58,16.05,2.15C161.9,125.62,159.28,125.28,157.36,119.88z"/>
			<path class="st1" d="M164.69,325.11c3.53,4.51,3.58,7.46-0.36,11.87c-3.69,4.13-7.24,8.42-11.29,12.17
				c-1.6,1.479-4.49,2.54-6.6,2.279c-5.17-0.64-10.25-2.14-15.35-3.359c-4.3-1.021-6.12-3.65-8.15-7.891
				c-2.24-4.67-2.95-10-6.82-14.46c-4.38-5.05-6.08-12.43-8.91-18.819c-0.77-1.74-1.4-3.551-2.1-5.32
				c-0.64,0.18-1.29,0.35-1.93,0.53c0.14,13.739,10.57,25.04,10.04,39.58c-19.68-6.87-36.49-17.551-49.49-33.86
				c7.22-5.021,16.17,0.06,19.71,11.29c0.47-0.101,0.94-0.2,1.41-0.311c-0.68-3.14-1.02-6.42-2.11-9.409
				c-2.59-7.061-3.09-14.021-0.05-22.04c-2.14,0.54-3.84,0.96-6.45,1.62c0.45-1.881,0.8-3.32,1.13-4.681
				c-3.18-0.22-3.21-0.189-4.72,5.73c-4.31,0.569-6.99-1.3-9.87-4.71c-3.24-3.84-8.56-5.94-11.75-9.811
				c-2.27-2.729-2.64-7.12-3.45-10.85c-0.09-0.44,2.36-2.021,3.67-2.07c6.62-0.22,10.85,4.391,15.19,8.37
				c2.61,2.39,4.59,5.48,6.85,8.25c4.56-3.14,5.9-6.76,3.89-11.25c1.24-0.55,2.48-1.11,3.56-1.59c-2.18-4.84-3.93-9.5-6.36-13.771
				c-1.14-2.01-3.43-3.529-5.48-4.8c-3.87-2.399-3.45-5.819-2.96-9.5c0.56-4.229,3-5.87,7.04-5.92c1.28-0.02,2.55-0.59,3.98-0.95
				c0.13-1.53,0.26-2.96,0.48-5.55c4.96,3.4,8.61,6.74,10.98,11.54c0.69,1.38,2.2,3.45,3.2,3.38c4.26-0.29,5.05,2.811,6.41,5.521
				c-2.08,0.83-4.14,1.729-6.26,2.46c-0.7,0.239-1.47,0.229-1.67,0.2c-0.01,0-0.01,0-0.02-0.011c-0.04,0-0.03,0.011,0.02,0.011
				c4.49,4.109,10.2,7.97,13.96,13.229c2.91,4.09,5.52,7.55,10.18,9.67c1.24,0.561,1.37,3.58,2.53,4.55
				c1.95,1.09,4.08,1.96,5.83,3.32c5.06,3.92,10.2,7.8,14.87,12.16c4.1,3.82,7.83,8.109,11.35,12.49
				C154.26,311.18,159.34,318.25,164.69,325.11z"/>
			<path class="st1" d="M0,5.86c54.32,0,108.65,0,162.98,0c-9.13,1.62-18.35,2.81-27.36,4.93C64.98,27.39,11.98,85.67,1.81,157.64
				c-0.53,3.74-1.21,7.47-1.81,11.2C0,114.6,0,60.36,0,5.86z"/>
			<path class="st1" d="M159.98,358.82c-53.25,0-106.49,0-159.98,0c0-54.33,0-108.65,0-162.98c1.48,8.64,2.34,17.44,4.54,25.89
				c18.93,72.73,65.44,117.12,138.5,133.94C148.63,356.96,154.33,357.78,159.98,358.82z"/>
			<path d="M156.63,292.42c-4.74,0.771-11.41-8.49-11.31-15.229C153.25,282.71,153.25,282.71,156.63,292.42z"/>
			<path class="st1" d="M153.57,104.36c0,0-0.02,0.01-0.04,0.03c-0.01,0-0.03,0.01-0.04,0.02c0-0.01,0.01-0.03,0.01-0.04
				C153.52,104.37,153.55,104.36,153.57,104.36z"/>
			<path class="st1" d="M153.5,104.37c0,0.01-0.01,0.03-0.01,0.04c-0.01,0-0.01,0.01-0.02,0.01c0-0.01,0.01-0.03,0.01-0.04
				c0,0,0.01,0,0.01-0.01H153.5z"/>
			<path class="st1" d="M153.48,104.38c0,0.01-0.01,0.03-0.01,0.04c-0.01-0.01-0.02-0.03-0.03-0.04
				C153.45,104.38,153.47,104.38,153.48,104.38z"/>
			<path class="st1" d="M151.51,101.14c0.12,1.14,1.23,2.17,1.93,3.24c-2.18,0.41-4.35,0.82-6.89,1.3c1.14-3.91-1.02-8.78,5.48-9.57
				C151.85,97.56,151.33,99.38,151.51,101.14z"/>
			<path d="M154.17,49.53c-0.57,11.45-3.84,21.06-11.78,28.87l-1.48-0.38c0.69-2.67,1.4-5.34,2.15-8c1.47-5.2,4.18-10.09,6.63-14.97
				C150.65,53.14,152.42,51.63,154.17,49.53z"/>
			<path class="st1" d="M144.7,171.38c0.19,2.52-0.25,5.08-0.44,7.62c-0.74,0.01-1.47,0.03-2.2,0.04c-0.71-2.3-1.66-4.56-2.03-6.91
				c-0.12-0.82,1.19-2.63,1.85-2.63C142.87,169.5,144.65,170.63,144.7,171.38z"/>
			<path d="M131.29,263.59c5.07,1.34,10.96,8.69,9.99,13.37C138.1,272.71,134.93,268.46,131.29,263.59z"/>
			<path class="st1" d="M116.73,225.66c1.01,2.6,4.26,4.33,7.1,7.02c-2.59,2.61-5.32,5.39-8.08,8.129c-0.2,0.2-0.64,0.311-0.92,0.25
				c-8.34-1.93-17.72-1.14-23.96-8.66c-1.11-1.33-2.01-3.7-1.59-5.2c0.39-1.4,2.62-2.33,4.12-3.36c0.33-0.23,1.31,0.15,1.4-0.04
				c2.87-5.79,8.37-2.89,12.63-3.64C111.62,219.42,114.88,220.94,116.73,225.66z"/>
			<path d="M90.1,248.98c-0.05,0-0.06-0.011-0.02-0.011C90.09,248.98,90.09,248.98,90.1,248.98z"/>
			<path class="st1" d="M73.62,258.35c-3.15,3.811-5.97,4.391-9.12,1.67c-8.73-7.529-19.47-7.34-30.06-8.21
				c-5.5-0.449-10.9-2.069-16.33-3.26c-0.43-0.09-0.7-0.93-1.53-2.14c11.3-2.521,21.97-4.44,33.17-4.01
				C61.51,242.85,67.04,250.96,73.62,258.35z"/>
			<path class="st1" d="M57.02,298.05c2.46,1.41,4.4,3.72,7.18,6.25c-3.82,1.96-6.57,4.98-7.88-0.77c-0.13-0.55-1.23-0.83-1.73-1.37
				c-0.83-0.9-1.55-1.91-2.31-2.88C53.9,298.82,56.01,297.47,57.02,298.05z"/>
			<path class="st1" d="M54,295.41c-4.11,3.29-7.44,1.5-10.68-5.76C47.62,288.72,51.63,290.89,54,295.41z"/>
		</g>
		<g>
		</g>
	</g>
</g>
<text transform="matrix(1 0 0 1 31.9956 393)" class="st0 st2">Alvear’s Boutique</text>
</svg>
